<mxfile host="Electron" modified="2023-07-12T14:17:39.378Z" agent="Mozilla/5.0 (Windows NT 10.0; Win64; x64) AppleWebKit/537.36 (KHTML, like Gecko) draw.io/21.6.1 Chrome/112.0.5615.204 Electron/24.6.1 Safari/537.36" etag="6YvpBDN7jsOSime37OIh" version="21.6.1" type="device">
  <diagram name="第 1 页" id="8rWLiKi3GTYmUooyF1L4">
    <mxGraphModel dx="2049" dy="1194" grid="1" gridSize="10" guides="1" tooltips="1" connect="1" arrows="1" fold="1" page="1" pageScale="1" pageWidth="1169" pageHeight="827" math="0" shadow="0">
      <root>
        <mxCell id="0" />
        <mxCell id="1" parent="0" />
        <mxCell id="M2ZTFIODy3Hsc-THNwCB-76" value="" style="group" vertex="1" connectable="0" parent="1">
          <mxGeometry x="80" y="100" width="1520" height="1020" as="geometry" />
        </mxCell>
        <mxCell id="M2ZTFIODy3Hsc-THNwCB-68" value="" style="rounded=0;whiteSpace=wrap;html=1;rotation=90;fillColor=none;fontSize=14;" vertex="1" parent="M2ZTFIODy3Hsc-THNwCB-76">
          <mxGeometry x="1170" y="170" width="280" height="60" as="geometry" />
        </mxCell>
        <mxCell id="M2ZTFIODy3Hsc-THNwCB-67" value="" style="group" vertex="1" connectable="0" parent="M2ZTFIODy3Hsc-THNwCB-76">
          <mxGeometry width="1270" height="1020" as="geometry" />
        </mxCell>
        <mxCell id="M2ZTFIODy3Hsc-THNwCB-36" value="" style="group" vertex="1" connectable="0" parent="M2ZTFIODy3Hsc-THNwCB-67">
          <mxGeometry width="1041.5" height="480" as="geometry" />
        </mxCell>
        <mxCell id="M2ZTFIODy3Hsc-THNwCB-23" value="" style="rounded=0;whiteSpace=wrap;html=1;fillColor=none;" vertex="1" parent="M2ZTFIODy3Hsc-THNwCB-36">
          <mxGeometry width="1010" height="480" as="geometry" />
        </mxCell>
        <mxCell id="M2ZTFIODy3Hsc-THNwCB-12" value="veth0&lt;br style=&quot;font-size: 18px;&quot;&gt;10.1.15.2/24" style="rounded=0;whiteSpace=wrap;html=1;fontSize=18;" vertex="1" parent="M2ZTFIODy3Hsc-THNwCB-36">
          <mxGeometry x="320" y="87.5" width="160" height="65" as="geometry" />
        </mxCell>
        <mxCell id="M2ZTFIODy3Hsc-THNwCB-13" value="veth1&lt;br style=&quot;font-size: 18px;&quot;&gt;10.1.15.3/24" style="rounded=0;whiteSpace=wrap;html=1;fontSize=18;" vertex="1" parent="M2ZTFIODy3Hsc-THNwCB-36">
          <mxGeometry x="320" y="327.5" width="160" height="65" as="geometry" />
        </mxCell>
        <mxCell id="M2ZTFIODy3Hsc-THNwCB-15" value="docker0&lt;br style=&quot;font-size: 18px;&quot;&gt;10.1.15.1/24" style="rounded=0;whiteSpace=wrap;html=1;fontSize=18;rotation=-90;" vertex="1" parent="M2ZTFIODy3Hsc-THNwCB-36">
          <mxGeometry x="490" y="210" width="160" height="65" as="geometry" />
        </mxCell>
        <mxCell id="M2ZTFIODy3Hsc-THNwCB-16" value="fannel0&lt;br style=&quot;font-size: 18px;&quot;&gt;10.1.15.0/16" style="rounded=0;whiteSpace=wrap;html=1;fontSize=18;rotation=-90;" vertex="1" parent="M2ZTFIODy3Hsc-THNwCB-36">
          <mxGeometry x="610" y="210" width="160" height="65" as="geometry" />
        </mxCell>
        <mxCell id="M2ZTFIODy3Hsc-THNwCB-17" value="" style="group" vertex="1" connectable="0" parent="M2ZTFIODy3Hsc-THNwCB-36">
          <mxGeometry x="20" y="20" width="240" height="200" as="geometry" />
        </mxCell>
        <mxCell id="M2ZTFIODy3Hsc-THNwCB-4" value="" style="rounded=0;whiteSpace=wrap;html=1;fillColor=none;" vertex="1" parent="M2ZTFIODy3Hsc-THNwCB-17">
          <mxGeometry width="240" height="200" as="geometry" />
        </mxCell>
        <mxCell id="M2ZTFIODy3Hsc-THNwCB-1" value="cache1 container" style="rounded=0;whiteSpace=wrap;html=1;fontSize=20;" vertex="1" parent="M2ZTFIODy3Hsc-THNwCB-17">
          <mxGeometry x="20" y="80" width="200" height="40" as="geometry" />
        </mxCell>
        <mxCell id="M2ZTFIODy3Hsc-THNwCB-2" value="app1 container" style="rounded=0;whiteSpace=wrap;html=1;fontSize=20;" vertex="1" parent="M2ZTFIODy3Hsc-THNwCB-17">
          <mxGeometry x="20" y="140" width="200" height="40" as="geometry" />
        </mxCell>
        <mxCell id="M2ZTFIODy3Hsc-THNwCB-3" value="&lt;font style=&quot;font-size: 20px;&quot;&gt;Pod&lt;br style=&quot;font-size: 20px;&quot;&gt;Web App Frontend1&lt;/font&gt;" style="text;html=1;strokeColor=none;fillColor=none;align=center;verticalAlign=middle;whiteSpace=wrap;rounded=0;fontSize=20;" vertex="1" parent="M2ZTFIODy3Hsc-THNwCB-17">
          <mxGeometry x="20" y="10" width="200" height="60" as="geometry" />
        </mxCell>
        <mxCell id="M2ZTFIODy3Hsc-THNwCB-28" value="" style="curved=1;endArrow=oval;html=1;rounded=0;endFill=1;startArrow=oval;startFill=1;exitX=0.5;exitY=0;exitDx=0;exitDy=0;entryX=1;entryY=0.5;entryDx=0;entryDy=0;" edge="1" parent="M2ZTFIODy3Hsc-THNwCB-17" source="M2ZTFIODy3Hsc-THNwCB-1" target="M2ZTFIODy3Hsc-THNwCB-4">
          <mxGeometry width="50" height="50" relative="1" as="geometry">
            <mxPoint x="360" y="-40" as="sourcePoint" />
            <mxPoint x="440" y="-110" as="targetPoint" />
            <Array as="points">
              <mxPoint x="210" y="50" />
            </Array>
          </mxGeometry>
        </mxCell>
        <mxCell id="M2ZTFIODy3Hsc-THNwCB-18" value="" style="group" vertex="1" connectable="0" parent="M2ZTFIODy3Hsc-THNwCB-36">
          <mxGeometry x="20" y="260" width="240" height="200" as="geometry" />
        </mxCell>
        <mxCell id="M2ZTFIODy3Hsc-THNwCB-10" value="" style="rounded=0;whiteSpace=wrap;html=1;fillColor=none;" vertex="1" parent="M2ZTFIODy3Hsc-THNwCB-18">
          <mxGeometry width="240" height="200" as="geometry" />
        </mxCell>
        <mxCell id="M2ZTFIODy3Hsc-THNwCB-7" value="cache2 container" style="rounded=0;whiteSpace=wrap;html=1;fontSize=20;" vertex="1" parent="M2ZTFIODy3Hsc-THNwCB-18">
          <mxGeometry x="20" y="80" width="200" height="40" as="geometry" />
        </mxCell>
        <mxCell id="M2ZTFIODy3Hsc-THNwCB-8" value="app2 container" style="rounded=0;whiteSpace=wrap;html=1;fontSize=20;" vertex="1" parent="M2ZTFIODy3Hsc-THNwCB-18">
          <mxGeometry x="20" y="140" width="200" height="40" as="geometry" />
        </mxCell>
        <mxCell id="M2ZTFIODy3Hsc-THNwCB-9" value="&lt;font style=&quot;font-size: 20px;&quot;&gt;Pod&lt;br style=&quot;font-size: 20px;&quot;&gt;Web App Frontend2&lt;/font&gt;" style="text;html=1;strokeColor=none;fillColor=none;align=center;verticalAlign=middle;whiteSpace=wrap;rounded=0;fontSize=20;" vertex="1" parent="M2ZTFIODy3Hsc-THNwCB-18">
          <mxGeometry x="20" y="10" width="200" height="60" as="geometry" />
        </mxCell>
        <mxCell id="M2ZTFIODy3Hsc-THNwCB-19" value="flanneld" style="rounded=0;whiteSpace=wrap;html=1;fontSize=18;" vertex="1" parent="M2ZTFIODy3Hsc-THNwCB-36">
          <mxGeometry x="780" y="222.5" width="140" height="40" as="geometry" />
        </mxCell>
        <mxCell id="M2ZTFIODy3Hsc-THNwCB-22" value="CoreOS Machine" style="text;html=1;strokeColor=none;fillColor=none;align=center;verticalAlign=middle;whiteSpace=wrap;rounded=0;fontSize=20;" vertex="1" parent="M2ZTFIODy3Hsc-THNwCB-36">
          <mxGeometry x="460" y="20" width="220" height="40" as="geometry" />
        </mxCell>
        <mxCell id="M2ZTFIODy3Hsc-THNwCB-20" value="eth0&lt;br style=&quot;font-size: 18px;&quot;&gt;192.168.0.100" style="rounded=0;whiteSpace=wrap;html=1;fontSize=18;rotation=-90;" vertex="1" parent="M2ZTFIODy3Hsc-THNwCB-36">
          <mxGeometry x="929" y="210" width="160" height="65" as="geometry" />
        </mxCell>
        <mxCell id="M2ZTFIODy3Hsc-THNwCB-29" value="" style="endArrow=oval;html=1;rounded=0;exitX=1;exitY=0.5;exitDx=0;exitDy=0;entryX=0;entryY=0.5;entryDx=0;entryDy=0;startArrow=oval;startFill=1;endFill=1;" edge="1" parent="M2ZTFIODy3Hsc-THNwCB-36" source="M2ZTFIODy3Hsc-THNwCB-4" target="M2ZTFIODy3Hsc-THNwCB-12">
          <mxGeometry width="50" height="50" relative="1" as="geometry">
            <mxPoint x="270" y="160" as="sourcePoint" />
            <mxPoint x="320" y="110" as="targetPoint" />
          </mxGeometry>
        </mxCell>
        <mxCell id="M2ZTFIODy3Hsc-THNwCB-30" value="" style="endArrow=oval;html=1;rounded=0;entryX=1;entryY=0.5;entryDx=0;entryDy=0;startArrow=oval;startFill=1;endFill=1;" edge="1" parent="M2ZTFIODy3Hsc-THNwCB-36" source="M2ZTFIODy3Hsc-THNwCB-12" target="M2ZTFIODy3Hsc-THNwCB-15">
          <mxGeometry width="50" height="50" relative="1" as="geometry">
            <mxPoint x="505" y="119.75999999999999" as="sourcePoint" />
            <mxPoint x="565" y="119.75999999999999" as="targetPoint" />
            <Array as="points">
              <mxPoint x="570" y="120" />
            </Array>
          </mxGeometry>
        </mxCell>
        <mxCell id="M2ZTFIODy3Hsc-THNwCB-31" value="" style="endArrow=oval;html=1;rounded=0;exitX=1;exitY=0.5;exitDx=0;exitDy=0;entryX=0;entryY=0.5;entryDx=0;entryDy=0;startArrow=oval;startFill=1;endFill=1;" edge="1" parent="M2ZTFIODy3Hsc-THNwCB-36" target="M2ZTFIODy3Hsc-THNwCB-15">
          <mxGeometry width="50" height="50" relative="1" as="geometry">
            <mxPoint x="480" y="359.76" as="sourcePoint" />
            <mxPoint x="540" y="359.76" as="targetPoint" />
            <Array as="points">
              <mxPoint x="570" y="360" />
            </Array>
          </mxGeometry>
        </mxCell>
        <mxCell id="M2ZTFIODy3Hsc-THNwCB-32" value="" style="endArrow=oval;html=1;rounded=0;entryX=0.5;entryY=0;entryDx=0;entryDy=0;startArrow=oval;startFill=1;endFill=1;exitX=0.5;exitY=1;exitDx=0;exitDy=0;" edge="1" parent="M2ZTFIODy3Hsc-THNwCB-36" source="M2ZTFIODy3Hsc-THNwCB-15" target="M2ZTFIODy3Hsc-THNwCB-16">
          <mxGeometry width="50" height="50" relative="1" as="geometry">
            <mxPoint x="610" y="240.07" as="sourcePoint" />
            <mxPoint x="650" y="239.82999999999998" as="targetPoint" />
          </mxGeometry>
        </mxCell>
        <mxCell id="M2ZTFIODy3Hsc-THNwCB-33" value="" style="endArrow=oval;html=1;rounded=0;entryX=0;entryY=0.5;entryDx=0;entryDy=0;startArrow=oval;startFill=1;endFill=1;exitX=0.5;exitY=1;exitDx=0;exitDy=0;" edge="1" parent="M2ZTFIODy3Hsc-THNwCB-36" source="M2ZTFIODy3Hsc-THNwCB-16" target="M2ZTFIODy3Hsc-THNwCB-19">
          <mxGeometry width="50" height="50" relative="1" as="geometry">
            <mxPoint x="725" y="297.5" as="sourcePoint" />
            <mxPoint x="780" y="297.5" as="targetPoint" />
          </mxGeometry>
        </mxCell>
        <mxCell id="M2ZTFIODy3Hsc-THNwCB-34" value="" style="endArrow=oval;html=1;rounded=0;startArrow=oval;startFill=1;endFill=1;entryX=0.5;entryY=0;entryDx=0;entryDy=0;exitX=1;exitY=0.5;exitDx=0;exitDy=0;" edge="1" parent="M2ZTFIODy3Hsc-THNwCB-36" source="M2ZTFIODy3Hsc-THNwCB-19" target="M2ZTFIODy3Hsc-THNwCB-20">
          <mxGeometry width="50" height="50" relative="1" as="geometry">
            <mxPoint x="920" y="242.32999999999998" as="sourcePoint" />
            <mxPoint x="970" y="240" as="targetPoint" />
          </mxGeometry>
        </mxCell>
        <mxCell id="M2ZTFIODy3Hsc-THNwCB-35" value="" style="endArrow=oval;html=1;rounded=0;exitX=1;exitY=0.5;exitDx=0;exitDy=0;entryX=0;entryY=0.5;entryDx=0;entryDy=0;startArrow=oval;startFill=1;endFill=1;" edge="1" parent="M2ZTFIODy3Hsc-THNwCB-36" source="M2ZTFIODy3Hsc-THNwCB-10" target="M2ZTFIODy3Hsc-THNwCB-13">
          <mxGeometry width="50" height="50" relative="1" as="geometry">
            <mxPoint x="290" y="290" as="sourcePoint" />
            <mxPoint x="350" y="290" as="targetPoint" />
          </mxGeometry>
        </mxCell>
        <mxCell id="M2ZTFIODy3Hsc-THNwCB-37" value="" style="group" vertex="1" connectable="0" parent="M2ZTFIODy3Hsc-THNwCB-67">
          <mxGeometry y="540" width="1041.5" height="480" as="geometry" />
        </mxCell>
        <mxCell id="M2ZTFIODy3Hsc-THNwCB-38" value="" style="rounded=0;whiteSpace=wrap;html=1;fillColor=none;" vertex="1" parent="M2ZTFIODy3Hsc-THNwCB-37">
          <mxGeometry width="1010" height="480" as="geometry" />
        </mxCell>
        <mxCell id="M2ZTFIODy3Hsc-THNwCB-39" value="veth0&lt;br style=&quot;font-size: 18px;&quot;&gt;10.1.20.2/24" style="rounded=0;whiteSpace=wrap;html=1;fontSize=18;" vertex="1" parent="M2ZTFIODy3Hsc-THNwCB-37">
          <mxGeometry x="320" y="87.5" width="160" height="65" as="geometry" />
        </mxCell>
        <mxCell id="M2ZTFIODy3Hsc-THNwCB-40" value="veth1&lt;br style=&quot;font-size: 18px;&quot;&gt;10.1.20.3/24" style="rounded=0;whiteSpace=wrap;html=1;fontSize=18;" vertex="1" parent="M2ZTFIODy3Hsc-THNwCB-37">
          <mxGeometry x="320" y="327.5" width="160" height="65" as="geometry" />
        </mxCell>
        <mxCell id="M2ZTFIODy3Hsc-THNwCB-41" value="docker0&lt;br style=&quot;font-size: 18px;&quot;&gt;10.1.20.1/24" style="rounded=0;whiteSpace=wrap;html=1;fontSize=18;rotation=-90;" vertex="1" parent="M2ZTFIODy3Hsc-THNwCB-37">
          <mxGeometry x="490" y="210" width="160" height="65" as="geometry" />
        </mxCell>
        <mxCell id="M2ZTFIODy3Hsc-THNwCB-42" value="fannel0&lt;br style=&quot;font-size: 18px;&quot;&gt;10.1.20.0/16" style="rounded=0;whiteSpace=wrap;html=1;fontSize=18;rotation=-90;" vertex="1" parent="M2ZTFIODy3Hsc-THNwCB-37">
          <mxGeometry x="610" y="210" width="160" height="65" as="geometry" />
        </mxCell>
        <mxCell id="M2ZTFIODy3Hsc-THNwCB-43" value="" style="group" vertex="1" connectable="0" parent="M2ZTFIODy3Hsc-THNwCB-37">
          <mxGeometry x="20" y="20" width="240" height="200" as="geometry" />
        </mxCell>
        <mxCell id="M2ZTFIODy3Hsc-THNwCB-44" value="" style="rounded=0;whiteSpace=wrap;html=1;fillColor=none;" vertex="1" parent="M2ZTFIODy3Hsc-THNwCB-43">
          <mxGeometry width="240" height="200" as="geometry" />
        </mxCell>
        <mxCell id="M2ZTFIODy3Hsc-THNwCB-45" value="backend1 container" style="rounded=0;whiteSpace=wrap;html=1;fontSize=20;" vertex="1" parent="M2ZTFIODy3Hsc-THNwCB-43">
          <mxGeometry x="20" y="80" width="200" height="40" as="geometry" />
        </mxCell>
        <mxCell id="M2ZTFIODy3Hsc-THNwCB-46" value="backup1 container" style="rounded=0;whiteSpace=wrap;html=1;fontSize=20;" vertex="1" parent="M2ZTFIODy3Hsc-THNwCB-43">
          <mxGeometry x="20" y="140" width="200" height="40" as="geometry" />
        </mxCell>
        <mxCell id="M2ZTFIODy3Hsc-THNwCB-47" value="&lt;font style=&quot;font-size: 20px;&quot;&gt;Pod&lt;br style=&quot;font-size: 20px;&quot;&gt;Backend Service1&lt;/font&gt;" style="text;html=1;strokeColor=none;fillColor=none;align=center;verticalAlign=middle;whiteSpace=wrap;rounded=0;fontSize=20;" vertex="1" parent="M2ZTFIODy3Hsc-THNwCB-43">
          <mxGeometry x="20" y="10" width="200" height="60" as="geometry" />
        </mxCell>
        <mxCell id="M2ZTFIODy3Hsc-THNwCB-48" value="" style="group" vertex="1" connectable="0" parent="M2ZTFIODy3Hsc-THNwCB-37">
          <mxGeometry x="20" y="260" width="240" height="200" as="geometry" />
        </mxCell>
        <mxCell id="M2ZTFIODy3Hsc-THNwCB-49" value="" style="rounded=0;whiteSpace=wrap;html=1;fillColor=none;" vertex="1" parent="M2ZTFIODy3Hsc-THNwCB-48">
          <mxGeometry width="240" height="200" as="geometry" />
        </mxCell>
        <mxCell id="M2ZTFIODy3Hsc-THNwCB-50" value="backend2 container" style="rounded=0;whiteSpace=wrap;html=1;fontSize=20;" vertex="1" parent="M2ZTFIODy3Hsc-THNwCB-48">
          <mxGeometry x="20" y="80" width="200" height="40" as="geometry" />
        </mxCell>
        <mxCell id="M2ZTFIODy3Hsc-THNwCB-51" value="backup2 container" style="rounded=0;whiteSpace=wrap;html=1;fontSize=20;" vertex="1" parent="M2ZTFIODy3Hsc-THNwCB-48">
          <mxGeometry x="20" y="140" width="200" height="40" as="geometry" />
        </mxCell>
        <mxCell id="M2ZTFIODy3Hsc-THNwCB-52" value="&lt;font style=&quot;font-size: 20px;&quot;&gt;Pod&lt;br style=&quot;font-size: 20px;&quot;&gt;Backend Service2&lt;/font&gt;" style="text;html=1;strokeColor=none;fillColor=none;align=center;verticalAlign=middle;whiteSpace=wrap;rounded=0;fontSize=20;" vertex="1" parent="M2ZTFIODy3Hsc-THNwCB-48">
          <mxGeometry x="20" y="10" width="200" height="60" as="geometry" />
        </mxCell>
        <mxCell id="M2ZTFIODy3Hsc-THNwCB-53" value="flanneld" style="rounded=0;whiteSpace=wrap;html=1;fontSize=18;" vertex="1" parent="M2ZTFIODy3Hsc-THNwCB-37">
          <mxGeometry x="780" y="222.5" width="140" height="40" as="geometry" />
        </mxCell>
        <mxCell id="M2ZTFIODy3Hsc-THNwCB-54" value="CoreOS Machine" style="text;html=1;strokeColor=none;fillColor=none;align=center;verticalAlign=middle;whiteSpace=wrap;rounded=0;fontSize=20;" vertex="1" parent="M2ZTFIODy3Hsc-THNwCB-37">
          <mxGeometry x="460" y="20" width="220" height="40" as="geometry" />
        </mxCell>
        <mxCell id="M2ZTFIODy3Hsc-THNwCB-55" value="eth0&lt;br style=&quot;font-size: 18px;&quot;&gt;192.168.0.200" style="rounded=0;whiteSpace=wrap;html=1;fontSize=18;rotation=-90;" vertex="1" parent="M2ZTFIODy3Hsc-THNwCB-37">
          <mxGeometry x="929" y="210" width="160" height="65" as="geometry" />
        </mxCell>
        <mxCell id="M2ZTFIODy3Hsc-THNwCB-56" value="" style="endArrow=oval;html=1;rounded=0;exitX=1;exitY=0.5;exitDx=0;exitDy=0;entryX=0;entryY=0.5;entryDx=0;entryDy=0;startArrow=oval;startFill=1;endFill=1;" edge="1" parent="M2ZTFIODy3Hsc-THNwCB-37" source="M2ZTFIODy3Hsc-THNwCB-44" target="M2ZTFIODy3Hsc-THNwCB-39">
          <mxGeometry width="50" height="50" relative="1" as="geometry">
            <mxPoint x="270" y="160" as="sourcePoint" />
            <mxPoint x="320" y="110" as="targetPoint" />
          </mxGeometry>
        </mxCell>
        <mxCell id="M2ZTFIODy3Hsc-THNwCB-57" value="" style="endArrow=oval;html=1;rounded=0;entryX=1;entryY=0.5;entryDx=0;entryDy=0;startArrow=oval;startFill=1;endFill=1;" edge="1" parent="M2ZTFIODy3Hsc-THNwCB-37" source="M2ZTFIODy3Hsc-THNwCB-39" target="M2ZTFIODy3Hsc-THNwCB-41">
          <mxGeometry width="50" height="50" relative="1" as="geometry">
            <mxPoint x="505" y="119.75999999999999" as="sourcePoint" />
            <mxPoint x="565" y="119.75999999999999" as="targetPoint" />
            <Array as="points">
              <mxPoint x="570" y="120" />
            </Array>
          </mxGeometry>
        </mxCell>
        <mxCell id="M2ZTFIODy3Hsc-THNwCB-58" value="" style="endArrow=oval;html=1;rounded=0;exitX=1;exitY=0.5;exitDx=0;exitDy=0;entryX=0;entryY=0.5;entryDx=0;entryDy=0;startArrow=oval;startFill=1;endFill=1;" edge="1" parent="M2ZTFIODy3Hsc-THNwCB-37" target="M2ZTFIODy3Hsc-THNwCB-41">
          <mxGeometry width="50" height="50" relative="1" as="geometry">
            <mxPoint x="480" y="359.76" as="sourcePoint" />
            <mxPoint x="540" y="359.76" as="targetPoint" />
            <Array as="points">
              <mxPoint x="570" y="360" />
            </Array>
          </mxGeometry>
        </mxCell>
        <mxCell id="M2ZTFIODy3Hsc-THNwCB-59" value="" style="endArrow=oval;html=1;rounded=0;entryX=0.5;entryY=0;entryDx=0;entryDy=0;startArrow=oval;startFill=1;endFill=1;exitX=0.5;exitY=1;exitDx=0;exitDy=0;" edge="1" parent="M2ZTFIODy3Hsc-THNwCB-37" source="M2ZTFIODy3Hsc-THNwCB-41" target="M2ZTFIODy3Hsc-THNwCB-42">
          <mxGeometry width="50" height="50" relative="1" as="geometry">
            <mxPoint x="610" y="240.07" as="sourcePoint" />
            <mxPoint x="650" y="239.82999999999998" as="targetPoint" />
          </mxGeometry>
        </mxCell>
        <mxCell id="M2ZTFIODy3Hsc-THNwCB-60" value="" style="endArrow=oval;html=1;rounded=0;entryX=0;entryY=0.5;entryDx=0;entryDy=0;startArrow=oval;startFill=1;endFill=1;exitX=0.5;exitY=1;exitDx=0;exitDy=0;" edge="1" parent="M2ZTFIODy3Hsc-THNwCB-37" source="M2ZTFIODy3Hsc-THNwCB-42" target="M2ZTFIODy3Hsc-THNwCB-53">
          <mxGeometry width="50" height="50" relative="1" as="geometry">
            <mxPoint x="725" y="297.5" as="sourcePoint" />
            <mxPoint x="780" y="297.5" as="targetPoint" />
          </mxGeometry>
        </mxCell>
        <mxCell id="M2ZTFIODy3Hsc-THNwCB-61" value="" style="endArrow=oval;html=1;rounded=0;startArrow=oval;startFill=1;endFill=1;entryX=0.5;entryY=0;entryDx=0;entryDy=0;exitX=1;exitY=0.5;exitDx=0;exitDy=0;" edge="1" parent="M2ZTFIODy3Hsc-THNwCB-37" source="M2ZTFIODy3Hsc-THNwCB-53" target="M2ZTFIODy3Hsc-THNwCB-55">
          <mxGeometry width="50" height="50" relative="1" as="geometry">
            <mxPoint x="920" y="242.32999999999998" as="sourcePoint" />
            <mxPoint x="970" y="240" as="targetPoint" />
          </mxGeometry>
        </mxCell>
        <mxCell id="M2ZTFIODy3Hsc-THNwCB-62" value="" style="endArrow=oval;html=1;rounded=0;exitX=1;exitY=0.5;exitDx=0;exitDy=0;entryX=0;entryY=0.5;entryDx=0;entryDy=0;startArrow=oval;startFill=1;endFill=1;" edge="1" parent="M2ZTFIODy3Hsc-THNwCB-37" source="M2ZTFIODy3Hsc-THNwCB-49" target="M2ZTFIODy3Hsc-THNwCB-40">
          <mxGeometry width="50" height="50" relative="1" as="geometry">
            <mxPoint x="290" y="290" as="sourcePoint" />
            <mxPoint x="350" y="290" as="targetPoint" />
          </mxGeometry>
        </mxCell>
        <mxCell id="M2ZTFIODy3Hsc-THNwCB-26" value="" style="curved=1;endArrow=oval;html=1;rounded=0;endFill=1;startArrow=oval;startFill=1;exitX=0.5;exitY=0;exitDx=0;exitDy=0;" edge="1" parent="M2ZTFIODy3Hsc-THNwCB-37" source="M2ZTFIODy3Hsc-THNwCB-50">
          <mxGeometry width="50" height="50" relative="1" as="geometry">
            <mxPoint x="290" y="275" as="sourcePoint" />
            <mxPoint x="260" y="360" as="targetPoint" />
            <Array as="points">
              <mxPoint x="250" y="300" />
            </Array>
          </mxGeometry>
        </mxCell>
        <mxCell id="M2ZTFIODy3Hsc-THNwCB-27" value="" style="curved=1;endArrow=oval;html=1;rounded=0;endFill=1;startArrow=oval;startFill=1;exitX=0.5;exitY=1;exitDx=0;exitDy=0;entryX=0.5;entryY=1;entryDx=0;entryDy=0;" edge="1" parent="M2ZTFIODy3Hsc-THNwCB-67" source="M2ZTFIODy3Hsc-THNwCB-20" target="M2ZTFIODy3Hsc-THNwCB-55">
          <mxGeometry width="50" height="50" relative="1" as="geometry">
            <mxPoint x="1100" y="150" as="sourcePoint" />
            <mxPoint x="1180" y="80" as="targetPoint" />
            <Array as="points">
              <mxPoint x="1270" y="440" />
              <mxPoint x="1130" y="700" />
            </Array>
          </mxGeometry>
        </mxCell>
        <mxCell id="M2ZTFIODy3Hsc-THNwCB-21" value="packet" style="shape=card;whiteSpace=wrap;html=1;fontSize=18;" vertex="1" parent="M2ZTFIODy3Hsc-THNwCB-67">
          <mxGeometry x="1130" y="340" width="60" height="77.5" as="geometry" />
        </mxCell>
        <mxCell id="M2ZTFIODy3Hsc-THNwCB-69" value="MAC" style="text;html=1;strokeColor=none;fillColor=none;align=center;verticalAlign=middle;whiteSpace=wrap;rounded=0;fontSize=14;" vertex="1" parent="M2ZTFIODy3Hsc-THNwCB-76">
          <mxGeometry x="1280" y="69" width="60" height="30" as="geometry" />
        </mxCell>
        <mxCell id="M2ZTFIODy3Hsc-THNwCB-70" value="Outer&lt;br style=&quot;font-size: 14px;&quot;&gt;IP" style="text;html=1;strokeColor=none;fillColor=none;align=center;verticalAlign=middle;whiteSpace=wrap;rounded=0;fontSize=14;" vertex="1" parent="M2ZTFIODy3Hsc-THNwCB-76">
          <mxGeometry x="1280" y="109" width="60" height="30" as="geometry" />
        </mxCell>
        <mxCell id="M2ZTFIODy3Hsc-THNwCB-71" value="UDP" style="text;html=1;strokeColor=none;fillColor=none;align=center;verticalAlign=middle;whiteSpace=wrap;rounded=0;fontSize=14;" vertex="1" parent="M2ZTFIODy3Hsc-THNwCB-76">
          <mxGeometry x="1280" y="149" width="60" height="30" as="geometry" />
        </mxCell>
        <mxCell id="M2ZTFIODy3Hsc-THNwCB-72" value="Inner&lt;br style=&quot;font-size: 14px;&quot;&gt;IP" style="text;html=1;strokeColor=none;fillColor=none;align=center;verticalAlign=middle;whiteSpace=wrap;rounded=0;fontSize=14;" vertex="1" parent="M2ZTFIODy3Hsc-THNwCB-76">
          <mxGeometry x="1280" y="189" width="60" height="30" as="geometry" />
        </mxCell>
        <mxCell id="M2ZTFIODy3Hsc-THNwCB-73" value="Payload" style="text;html=1;strokeColor=none;fillColor=none;align=center;verticalAlign=middle;whiteSpace=wrap;rounded=0;rotation=-90;fontSize=14;" vertex="1" parent="M2ZTFIODy3Hsc-THNwCB-76">
          <mxGeometry x="1280" y="269" width="60" height="30" as="geometry" />
        </mxCell>
        <mxCell id="M2ZTFIODy3Hsc-THNwCB-74" value="&lt;font style=&quot;font-size: 14px;&quot;&gt;source: 192.168.0.100&lt;br style=&quot;font-size: 14px;&quot;&gt;dest: 192.168.0.200&lt;/font&gt;" style="text;html=1;strokeColor=none;fillColor=none;align=left;verticalAlign=middle;whiteSpace=wrap;rounded=0;fontSize=14;" vertex="1" parent="M2ZTFIODy3Hsc-THNwCB-76">
          <mxGeometry x="1350" y="103.5" width="170" height="41" as="geometry" />
        </mxCell>
        <mxCell id="M2ZTFIODy3Hsc-THNwCB-75" value="&lt;font style=&quot;font-size: 14px;&quot;&gt;source: 10.1.15.2&lt;br style=&quot;font-size: 14px;&quot;&gt;dest: 10.1.20.3&lt;/font&gt;" style="text;html=1;strokeColor=none;fillColor=none;align=left;verticalAlign=middle;whiteSpace=wrap;rounded=0;fontSize=14;" vertex="1" parent="M2ZTFIODy3Hsc-THNwCB-76">
          <mxGeometry x="1350" y="183.5" width="170" height="41" as="geometry" />
        </mxCell>
      </root>
    </mxGraphModel>
  </diagram>
</mxfile>
